<svg xmlns="http://www.w3.org/2000/svg" viewBox="0 0 780 405" role="img" aria-label="도쿄 소형 임대 물건 연간 비용 구조 예시 차트" style="max-width:100%;height:auto;border:1px solid #e5e7eb;border-radius:12px;background:#ffffff;font-family:'Inter', 'Outfit', system-ui, -apple-system, sans-serif">
  <!-- Header Section -->
  <rect x="0" y="0" width="780" height="76" fill="#f9f9f6" />
  <line x1="0" y1="76" x2="780" y2="76" stroke="#e5e7eb" stroke-width="1" />
  <rect x="18" y="20" width="4" height="36" fill="#047857" rx="2" />
  <text x="30" y="38" font-size="16" font-weight="700" fill="#111827">연간 비용 및 수익 구조 (임대수입 100 기준)</text>
  <text x="30" y="58" font-size="12" fill="#6b7280">도쿄 소형 임대 맨션 연간 비용 및 현금흐름 시뮬레이션 예시</text>

  <!-- Left Bracket (Total Gross Rent) -->
  <path d="M 210,110 L 195,110 L 195,360 L 210,360" fill="none" stroke="#9ca3af" stroke-width="1.5" />
  <line x1="195" y1="235" x2="185" y2="235" stroke="#9ca3af" stroke-width="1.5" />
  <text x="175" y="231" font-size="13" font-weight="700" fill="#111827" text-anchor="end">총 임대수입 : 100</text>
  <text x="175" y="247" font-size="11" fill="#6b7280" text-anchor="end">(100% Gross Rent)</text>

  <!-- Stacked Bar Chart -->
  <!-- Background guide bar (optional, matches the approved outline style) -->
  <rect x="230" y="110" width="80" height="250" fill="none" stroke="#e5e7eb" stroke-width="1" rx="4" />

  <!-- 1. Net Cash Flow: 30 (y=110 to 185) -->
  <rect x="230" y="110" width="80" height="75" fill="#059669" stroke="#ffffff" stroke-width="1.5" rx="2" />
  <!-- 2. Financing: 24 (y=185 to 245) -->
  <rect x="230" y="185" width="80" height="60" fill="#4f46e5" stroke="#ffffff" stroke-width="1.5" rx="2" />
  <!-- 3. Taxes: 14 (y=245 to 280) -->
  <rect x="230" y="245" width="80" height="35" fill="#e11d48" stroke="#ffffff" stroke-width="1.5" rx="2" />
  <!-- 4. Repair Reserve: 12 (y=280 to 310) -->
  <rect x="230" y="280" width="80" height="30" fill="#d97706" stroke="#ffffff" stroke-width="1.5" rx="2" />
  <!-- 5. Vacancy: 10 (y=310 to 335) -->
  <rect x="230" y="310" width="80" height="25" fill="#0d9488" stroke="#ffffff" stroke-width="1.5" rx="2" />
  <!-- 6. Management: 10 (y=335 to 360) -->
  <rect x="230" y="335" width="80" height="25" fill="#4b5563" stroke="#ffffff" stroke-width="1.5" rx="2" />

  <!-- Connector Lines -->
  <line x1="315" y1="147.5" x2="345" y2="147.5" stroke="#9ca3af" stroke-width="1" stroke-dasharray="2 2" />
  <line x1="315" y1="215" x2="345" y2="215" stroke="#9ca3af" stroke-width="1" stroke-dasharray="2 2" />
  <line x1="315" y1="262.5" x2="345" y2="262.5" stroke="#9ca3af" stroke-width="1" stroke-dasharray="2 2" />
  <line x1="315" y1="295" x2="345" y2="295" stroke="#9ca3af" stroke-width="1" stroke-dasharray="2 2" />
  <line x1="315" y1="322.5" x2="345" y2="322.5" stroke="#9ca3af" stroke-width="1" stroke-dasharray="2 2" />
  <line x1="315" y1="347.5" x2="345" y2="347.5" stroke="#9ca3af" stroke-width="1" stroke-dasharray="2 2" />

  <!-- Right-side Labels -->
  <text x="355" y="152" font-size="13" font-weight="700" fill="#059669">소득세 전 순현금흐름 (NOI - 이자) : 30%</text>
  <text x="355" y="219" font-size="13" font-weight="600" fill="#374151">금융비용 &lt;tspan fill="#6b7280" font-weight="normal"&gt;(LTV 50~60% 조달 금리 가정)&lt;/tspan&gt; : 24%</text>
  <text x="355" y="266" font-size="13" font-weight="600" fill="#374151">보유세 &lt;tspan fill="#6b7280" font-weight="normal"&gt;(고정자산세 및 도시계획세)&lt;/tspan&gt; : 14%</text>
  <text x="355" y="299" font-size="13" font-weight="600" fill="#374151">수선적립금 &lt;tspan fill="#6b7280" font-weight="normal"&gt;(장기 수선 대비 계획 적립)&lt;/tspan&gt; : 12%</text>
  <text x="355" y="326" font-size="13" font-weight="600" fill="#374151">공실 및 임차 광고비 &lt;tspan fill="#6b7280" font-weight="normal"&gt;(턴오버/공실 예비율)&lt;/tspan&gt; : 10%</text>
  <text x="355" y="351" font-size="13" font-weight="600" fill="#374151">관리수수료 및 위탁운영비 &lt;tspan fill="#6b7280" font-weight="normal"&gt;(PM 수수료 등)&lt;/tspan&gt; : 10%</text>

  <!-- Footnote -->
  <text x="18" y="390" font-size="11" fill="#9ca3af" font-style="italic">* 수선적립금 및 공실 비용은 도쿄 도심 소형 맨션의 평균 운영 지표를 기반으로 한 기획용 시뮬레이션 템플릿 예시입니다.</text>
</svg>